<svg version="1.1" viewBox="0.0 0.0 65.00787401574803 65.00787401574803" fill="none" stroke="none" stroke-linecap="square" stroke-miterlimit="10" xmlns:xlink="http://www.w3.org/1999/xlink" xmlns="http://www.w3.org/2000/svg"><clipPath id="p.0"><path d="m0 0l65.00787 0l0 65.00787l-65.00787 0l0 -65.00787z" clip-rule="nonzero"/></clipPath><g clip-path="url(#p.0)"><path fill="#000000" fill-opacity="0.0" d="m0 0l65.00787 0l0 65.00787l-65.00787 0z" fill-rule="evenodd"/><path fill="#d9ead3" d="m4.1574802 32.503937l0 0c0 -15.655315 12.691141 -28.346457 28.346457 -28.346457l0 0c7.517948 0 14.727982 2.986493 20.043972 8.302485c5.3159904 5.3159914 8.302486 12.526023 8.302486 20.043972l0 0c0 15.655315 -12.691143 28.346458 -28.346458 28.346458l0 0c-15.655315 0 -28.346457 -12.691143 -28.346457 -28.346458z" fill-rule="evenodd"/><path stroke="#6aa84f" stroke-width="1.0" stroke-linejoin="round" stroke-linecap="butt" d="m4.1574802 32.503937l0 0c0 -15.655315 12.691141 -28.346457 28.346457 -28.346457l0 0c7.517948 0 14.727982 2.986493 20.043972 8.302485c5.3159904 5.3159914 8.302486 12.526023 8.302486 20.043972l0 0c0 15.655315 -12.691143 28.346458 -28.346458 28.346458l0 0c-15.655315 0 -28.346457 -12.691143 -28.346457 -28.346458z" fill-rule="evenodd"/></g></svg>