<svg version="1.1" viewBox="0.0 0.0 65.00787401574803 65.00787401574803" fill="none" stroke="none" stroke-linecap="square" stroke-miterlimit="10" xmlns:xlink="http://www.w3.org/1999/xlink" xmlns="http://www.w3.org/2000/svg"><clipPath id="p.0"><path d="m0 0l65.00787 0l0 65.00787l-65.00787 0l0 -65.00787z" clip-rule="nonzero"/></clipPath><g clip-path="url(#p.0)"><path fill="#000000" fill-opacity="0.0" d="m0 0l65.00787 0l0 65.00787l-65.00787 0z" fill-rule="evenodd"/><path fill="#a4c2f4" d="m4.1574802 32.503937l0 0c0 -15.655315 12.691141 -28.346457 28.346457 -28.346457l0 0c7.517948 0 14.727982 2.986493 20.043972 8.302485c5.3159904 5.3159914 8.302486 12.526023 8.302486 20.043972l0 0c0 15.655315 -12.691143 28.346458 -28.346458 28.346458l0 0c-15.655315 0 -28.346457 -12.691143 -28.346457 -28.346458z" fill-rule="evenodd"/><path stroke="#3c78d8" stroke-width="1.0" stroke-linejoin="round" stroke-linecap="butt" d="m4.1574802 32.503937l0 0c0 -15.655315 12.691141 -28.346457 28.346457 -28.346457l0 0c7.517948 0 14.727982 2.986493 20.043972 8.302485c5.3159904 5.3159914 8.302486 12.526023 8.302486 20.043972l0 0c0 15.655315 -12.691143 28.346458 -28.346458 28.346458l0 0c-15.655315 0 -28.346457 -12.691143 -28.346457 -28.346458z" fill-rule="evenodd"/><path fill="#000000" fill-opacity="0.0" d="m10.771653 32.503937l0 0c0 -12.002409 9.729875 -21.732285 21.732285 -21.732285l0 0c5.7637596 0 11.2914505 2.2896452 15.367046 6.365239c4.075592 4.075594 6.365238 9.603285 6.365238 15.367044l0 0c0 12.002407 -9.729877 21.732285 -21.732285 21.732285l0 0c-12.002409 0 -21.732285 -9.729877 -21.732285 -21.732285z" fill-rule="evenodd"/><path stroke="#3c78d8" stroke-width="1.0" stroke-linejoin="round" stroke-linecap="butt" d="m10.771653 32.503937l0 0c0 -12.002409 9.729875 -21.732285 21.732285 -21.732285l0 0c5.7637596 0 11.2914505 2.2896452 15.367046 6.365239c4.075592 4.075594 6.365238 9.603285 6.365238 15.367044l0 0c0 12.002407 -9.729877 21.732285 -21.732285 21.732285l0 0c-12.002409 0 -21.732285 -9.729877 -21.732285 -21.732285z" fill-rule="evenodd"/><path fill="#000000" fill-opacity="0.0" d="m23.055119 32.503937l0 0c0 -5.218439 4.230379 -9.448818 9.448818 -9.448818l0 0c2.5059814 0 4.9093285 0.99549675 6.681324 2.7674942c1.7719955 1.7719975 2.7674942 4.1753426 2.7674942 6.681324l0 0c0 5.218437 -4.230381 9.448818 -9.448818 9.448818l0 0c-5.218439 0 -9.448818 -4.230381 -9.448818 -9.448818z" fill-rule="evenodd"/><path stroke="#3c78d8" stroke-width="1.0" stroke-linejoin="round" stroke-linecap="butt" d="m23.055119 32.503937l0 0c0 -5.218439 4.230379 -9.448818 9.448818 -9.448818l0 0c2.5059814 0 4.9093285 0.99549675 6.681324 2.7674942c1.7719955 1.7719975 2.7674942 4.1753426 2.7674942 6.681324l0 0c0 5.218437 -4.230381 9.448818 -9.448818 9.448818l0 0c-5.218439 0 -9.448818 -4.230381 -9.448818 -9.448818z" fill-rule="evenodd"/></g></svg>