<svg version="1.1" viewBox="0.0 0.0 130.01574803149606 129.63779527559055" fill="none" stroke="none" stroke-linecap="square" stroke-miterlimit="10" xmlns:xlink="http://www.w3.org/1999/xlink" xmlns="http://www.w3.org/2000/svg"><clipPath id="p.0"><path d="m0 0l130.01575 0l0 129.6378l-130.01575 0l0 -129.6378z" clip-rule="nonzero"/></clipPath><g clip-path="url(#p.0)"><path fill="#000000" fill-opacity="0.0" d="m0 0l130.01575 0l0 129.6378l-130.01575 0z" fill-rule="evenodd"/><path fill="#000000" d="m21.165354 32.503937l0 0c0 -6.262127 5.076456 -11.338583 11.338583 -11.338583l0 0c3.0071793 0 5.8911934 1.1945972 8.01759 3.3209953c2.1263962 2.1263962 3.3209915 5.0104084 3.3209915 8.017588l0 0c0 6.262127 -5.076454 11.338581 -11.338581 11.338581l0 0c-6.262127 0 -11.338583 -5.076454 -11.338583 -11.338581z" fill-rule="evenodd"/><path stroke="#000000" stroke-width="1.0" stroke-linejoin="round" stroke-linecap="butt" d="m21.165354 32.503937l0 0c0 -6.262127 5.076456 -11.338583 11.338583 -11.338583l0 0c3.0071793 0 5.8911934 1.1945972 8.01759 3.3209953c2.1263962 2.1263962 3.3209915 5.0104084 3.3209915 8.017588l0 0c0 6.262127 -5.076454 11.338581 -11.338581 11.338581l0 0c-6.262127 0 -11.338583 -5.076454 -11.338583 -11.338581z" fill-rule="evenodd"/><path fill="#000000" d="m21.165354 97.51181l0 0c0 -6.262123 5.076456 -11.338585 11.338583 -11.338585l0 0c3.0071793 0 5.8911934 1.194603 8.01759 3.3209991c2.1263962 2.1263962 3.3209915 5.0104065 3.3209915 8.017586l0 0c0 6.2621307 -5.076454 11.338585 -11.338581 11.338585l0 0c-6.262127 0 -11.338583 -5.076454 -11.338583 -11.338585z" fill-rule="evenodd"/><path stroke="#000000" stroke-width="1.0" stroke-linejoin="round" stroke-linecap="butt" d="m21.165354 97.51181l0 0c0 -6.262123 5.076456 -11.338585 11.338583 -11.338585l0 0c3.0071793 0 5.8911934 1.194603 8.01759 3.3209991c2.1263962 2.1263962 3.3209915 5.0104065 3.3209915 8.017586l0 0c0 6.2621307 -5.076454 11.338585 -11.338581 11.338585l0 0c-6.262127 0 -11.338583 -5.076454 -11.338583 -11.338585z" fill-rule="evenodd"/><path fill="#000000" d="m86.173225 32.503937l0 0c0 -6.262127 5.076462 -11.338583 11.338585 -11.338583l0 0c3.0071793 0 5.8911896 1.1945972 8.017586 3.3209953c2.1264038 2.1263962 3.3209991 5.0104084 3.3209991 8.017588l0 0c0 6.262127 -5.076454 11.338581 -11.338585 11.338581l0 0c-6.262123 0 -11.338585 -5.076454 -11.338585 -11.338581z" fill-rule="evenodd"/><path stroke="#000000" stroke-width="1.0" stroke-linejoin="round" stroke-linecap="butt" d="m86.173225 32.503937l0 0c0 -6.262127 5.076462 -11.338583 11.338585 -11.338583l0 0c3.0071793 0 5.8911896 1.1945972 8.017586 3.3209953c2.1264038 2.1263962 3.3209991 5.0104084 3.3209991 8.017588l0 0c0 6.262127 -5.076454 11.338581 -11.338585 11.338581l0 0c-6.262123 0 -11.338585 -5.076454 -11.338585 -11.338581z" fill-rule="evenodd"/><path fill="#000000" d="m86.173225 97.51181l0 0c0 -6.262123 5.076462 -11.338585 11.338585 -11.338585l0 0c3.0071793 0 5.8911896 1.194603 8.017586 3.3209991c2.1264038 2.1263962 3.3209991 5.0104065 3.3209991 8.017586l0 0c0 6.2621307 -5.076454 11.338585 -11.338585 11.338585l0 0c-6.262123 0 -11.338585 -5.076454 -11.338585 -11.338585z" fill-rule="evenodd"/><path stroke="#000000" stroke-width="1.0" stroke-linejoin="round" stroke-linecap="butt" d="m86.173225 97.51181l0 0c0 -6.262123 5.076462 -11.338585 11.338585 -11.338585l0 0c3.0071793 0 5.8911896 1.194603 8.017586 3.3209991c2.1264038 2.1263962 3.3209991 5.0104065 3.3209991 8.017586l0 0c0 6.2621307 -5.076454 11.338585 -11.338585 11.338585l0 0c-6.262123 0 -11.338585 -5.076454 -11.338585 -11.338585z" fill-rule="evenodd"/><path fill="#000000" d="m53.669292 64.8189l0 0c0 -6.2621307 5.076454 -11.338585 11.338581 -11.338585l0 0c3.0071793 0 5.8911896 1.1945953 8.017586 3.3209915c2.1264038 2.1263962 3.3209991 5.0104103 3.3209991 8.017593l0 0c0 6.262123 -5.076462 11.338577 -11.338585 11.338577l0 0c-6.262127 0 -11.338581 -5.076454 -11.338581 -11.338577z" fill-rule="evenodd"/><path stroke="#000000" stroke-width="1.0" stroke-linejoin="round" stroke-linecap="butt" d="m53.669292 64.8189l0 0c0 -6.2621307 5.076454 -11.338585 11.338581 -11.338585l0 0c3.0071793 0 5.8911896 1.1945953 8.017586 3.3209915c2.1264038 2.1263962 3.3209991 5.0104103 3.3209991 8.017593l0 0c0 6.262123 -5.076462 11.338577 -11.338585 11.338577l0 0c-6.262127 0 -11.338581 -5.076454 -11.338581 -11.338577z" fill-rule="evenodd"/></g></svg>