<svg version="1.1" viewBox="0.0 0.0 715.0 715.0" fill="none" stroke="none" stroke-linecap="square" stroke-miterlimit="10" xmlns:xlink="http://www.w3.org/1999/xlink" xmlns="http://www.w3.org/2000/svg"><clipPath id="p.0"><path d="m0 0l715.0 0l0 715.0l-715.0 0l0 -715.0z" clip-rule="nonzero"/></clipPath><g clip-path="url(#p.0)"><path fill="#000000" fill-opacity="0.0" d="m0 0l715.0 0l0 715.0l-715.0 0z" fill-rule="evenodd"/><path fill="#fff2cc" d="m0 260.0315l65.00787 0l0 65.00787l-65.00787 0z" fill-rule="evenodd"/><path stroke="#000000" stroke-width="1.0" stroke-linejoin="round" stroke-linecap="butt" d="m0 260.0315l65.00787 0l0 65.00787l-65.00787 0z" fill-rule="evenodd"/><path fill="#ffffff" d="m65.00787 260.0315l65.00787 0l0 65.00787l-65.00787 0z" fill-rule="evenodd"/><path stroke="#000000" stroke-width="1.0" stroke-linejoin="round" stroke-linecap="butt" d="m65.00787 260.0315l65.00787 0l0 65.00787l-65.00787 0z" fill-rule="evenodd"/><path fill="#ffffff" d="m130.01575 260.0315l65.00787 0l0 65.00787l-65.00787 0z" fill-rule="evenodd"/><path stroke="#000000" stroke-width="1.0" stroke-linejoin="round" stroke-linecap="butt" d="m130.01575 260.0315l65.00787 0l0 65.00787l-65.00787 0z" fill-rule="evenodd"/><path fill="#ffffff" d="m195.02362 260.0315l65.00787 0l0 65.00787l-65.00787 0z" fill-rule="evenodd"/><path stroke="#000000" stroke-width="1.0" stroke-linejoin="round" stroke-linecap="butt" d="m195.02362 260.0315l65.00787 0l0 65.00787l-65.00787 0z" fill-rule="evenodd"/><path fill="#ffffff" d="m260.0315 260.0315l65.00787 0l0 65.00787l-65.00787 0z" fill-rule="evenodd"/><path stroke="#000000" stroke-width="1.0" stroke-linejoin="round" stroke-linecap="butt" d="m260.0315 260.0315l65.00787 0l0 65.00787l-65.00787 0z" fill-rule="evenodd"/><path fill="#ffffff" d="m0 324.99606l65.00787 0l0 65.00787l-65.00787 0z" fill-rule="evenodd"/><path stroke="#000000" stroke-width="1.0" stroke-linejoin="round" stroke-linecap="butt" d="m0 324.99606l65.00787 0l0 65.00787l-65.00787 0z" fill-rule="evenodd"/><path fill="#ffffff" d="m0 390.00525l65.00787 0l0 65.00787l-65.00787 0z" fill-rule="evenodd"/><path stroke="#000000" stroke-width="1.0" stroke-linejoin="round" stroke-linecap="butt" d="m0 390.00525l65.00787 0l0 65.00787l-65.00787 0z" fill-rule="evenodd"/><path fill="#ffffff" d="m65.00787 390.00525l65.00787 0l0 65.00787l-65.00787 0z" fill-rule="evenodd"/><path stroke="#000000" stroke-width="1.0" stroke-linejoin="round" stroke-linecap="butt" d="m65.00787 390.00525l65.00787 0l0 65.00787l-65.00787 0z" fill-rule="evenodd"/><path fill="#ffffff" d="m130.01575 390.00525l65.00787 0l0 65.00787l-65.00787 0z" fill-rule="evenodd"/><path stroke="#000000" stroke-width="1.0" stroke-linejoin="round" stroke-linecap="butt" d="m130.01575 390.00525l65.00787 0l0 65.00787l-65.00787 0z" fill-rule="evenodd"/><path fill="#ffffff" d="m195.02362 390.00525l65.00787 0l0 65.00787l-65.00787 0z" fill-rule="evenodd"/><path stroke="#000000" stroke-width="1.0" stroke-linejoin="round" stroke-linecap="butt" d="m195.02362 390.00525l65.00787 0l0 65.00787l-65.00787 0z" fill-rule="evenodd"/><path fill="#ffffff" d="m260.0315 390.00525l65.00787 0l0 65.00787l-65.00787 0z" fill-rule="evenodd"/><path stroke="#000000" stroke-width="1.0" stroke-linejoin="round" stroke-linecap="butt" d="m260.0315 390.00525l65.00787 0l0 65.00787l-65.00787 0z" fill-rule="evenodd"/><path fill="#ffffff" d="m260.0315 455.01312l65.00787 0l0 65.00787l-65.00787 0z" fill-rule="evenodd"/><path stroke="#000000" stroke-width="1.0" stroke-linejoin="round" stroke-linecap="butt" d="m260.0315 455.01312l65.00787 0l0 65.00787l-65.00787 0z" fill-rule="evenodd"/><path fill="#ffffff" d="m260.0315 519.979l65.00787 0l0 65.00787l-65.00787 0z" fill-rule="evenodd"/><path stroke="#000000" stroke-width="1.0" stroke-linejoin="round" stroke-linecap="butt" d="m260.0315 519.979l65.00787 0l0 65.00787l-65.00787 0z" fill-rule="evenodd"/><path fill="#ffffff" d="m260.0315 584.9869l65.00787 0l0 65.00787l-65.00787 0z" fill-rule="evenodd"/><path stroke="#000000" stroke-width="1.0" stroke-linejoin="round" stroke-linecap="butt" d="m260.0315 584.9869l65.00787 0l0 65.00787l-65.00787 0z" fill-rule="evenodd"/><path fill="#d9ead3" d="m260.0315 649.95276l65.00787 0l0 65.00787l-65.00787 0z" fill-rule="evenodd"/><path stroke="#000000" stroke-width="1.0" stroke-linejoin="round" stroke-linecap="butt" d="m260.0315 649.95276l65.00787 0l0 65.00787l-65.00787 0z" fill-rule="evenodd"/><path fill="#ffffff" d="m324.99606 649.95276l65.00787 0l0 65.00787l-65.00787 0z" fill-rule="evenodd"/><path stroke="#000000" stroke-width="1.0" stroke-linejoin="round" stroke-linecap="butt" d="m324.99606 649.95276l65.00787 0l0 65.00787l-65.00787 0z" fill-rule="evenodd"/><path fill="#ffffff" d="m390.00525 650.1207l65.00787 0l0 65.00787l-65.00787 0z" fill-rule="evenodd"/><path stroke="#000000" stroke-width="1.0" stroke-linejoin="round" stroke-linecap="butt" d="m390.00525 650.1207l65.00787 0l0 65.00787l-65.00787 0z" fill-rule="evenodd"/><path fill="#ffffff" d="m390.00525 584.9869l65.00787 0l0 65.00787l-65.00787 0z" fill-rule="evenodd"/><path stroke="#000000" stroke-width="1.0" stroke-linejoin="round" stroke-linecap="butt" d="m390.00525 584.9869l65.00787 0l0 65.00787l-65.00787 0z" fill-rule="evenodd"/><path fill="#ffffff" d="m390.00525 519.853l65.00787 0l0 65.00787l-65.00787 0z" fill-rule="evenodd"/><path stroke="#000000" stroke-width="1.0" stroke-linejoin="round" stroke-linecap="butt" d="m390.00525 519.853l65.00787 0l0 65.00787l-65.00787 0z" fill-rule="evenodd"/><path fill="#ffffff" d="m390.00525 454.99213l65.00787 0l0 65.00787l-65.00787 0z" fill-rule="evenodd"/><path stroke="#000000" stroke-width="1.0" stroke-linejoin="round" stroke-linecap="butt" d="m390.00525 454.99213l65.00787 0l0 65.00787l-65.00787 0z" fill-rule="evenodd"/><path fill="#ffffff" d="m390.04724 389.94226l65.00787 0l0 65.00787l-65.00787 0z" fill-rule="evenodd"/><path stroke="#000000" stroke-width="1.0" stroke-linejoin="round" stroke-linecap="butt" d="m390.04724 389.94226l65.00787 0l0 65.00787l-65.00787 0z" fill-rule="evenodd"/><path fill="#ffffff" d="m455.0551 390.00525l65.00787 0l0 65.00787l-65.00787 0z" fill-rule="evenodd"/><path stroke="#000000" stroke-width="1.0" stroke-linejoin="round" stroke-linecap="butt" d="m455.0551 390.00525l65.00787 0l0 65.00787l-65.00787 0z" fill-rule="evenodd"/><path fill="#ffffff" d="m520.063 389.94226l65.00787 0l0 65.00787l-65.00787 0z" fill-rule="evenodd"/><path stroke="#000000" stroke-width="1.0" stroke-linejoin="round" stroke-linecap="butt" d="m520.063 389.94226l65.00787 0l0 65.00787l-65.00787 0z" fill-rule="evenodd"/><path fill="#ffffff" d="m585.07086 389.94226l65.00787 0l0 65.00787l-65.00787 0z" fill-rule="evenodd"/><path stroke="#000000" stroke-width="1.0" stroke-linejoin="round" stroke-linecap="butt" d="m585.07086 389.94226l65.00787 0l0 65.00787l-65.00787 0z" fill-rule="evenodd"/><path fill="#f4cccc" d="m650.07874 389.94226l65.00787 0l0 65.00787l-65.00787 0z" fill-rule="evenodd"/><path stroke="#000000" stroke-width="1.0" stroke-linejoin="round" stroke-linecap="butt" d="m650.07874 389.94226l65.00787 0l0 65.00787l-65.00787 0z" fill-rule="evenodd"/><path fill="#ffffff" d="m650.07874 325.03937l65.00787 0l0 65.00787l-65.00787 0z" fill-rule="evenodd"/><path stroke="#000000" stroke-width="1.0" stroke-linejoin="round" stroke-linecap="butt" d="m650.07874 325.03937l65.00787 0l0 65.00787l-65.00787 0z" fill-rule="evenodd"/><path fill="#ffffff" d="m650.07874 260.0315l65.00787 0l0 65.00787l-65.00787 0z" fill-rule="evenodd"/><path stroke="#000000" stroke-width="1.0" stroke-linejoin="round" stroke-linecap="butt" d="m650.07874 260.0315l65.00787 0l0 65.00787l-65.00787 0z" fill-rule="evenodd"/><path fill="#ffffff" d="m585.07086 260.0315l65.00787 0l0 65.00787l-65.00787 0z" fill-rule="evenodd"/><path stroke="#000000" stroke-width="1.0" stroke-linejoin="round" stroke-linecap="butt" d="m585.07086 260.0315l65.00787 0l0 65.00787l-65.00787 0z" fill-rule="evenodd"/><path fill="#ffffff" d="m520.063 260.0315l65.00787 0l0 65.00787l-65.00787 0z" fill-rule="evenodd"/><path stroke="#000000" stroke-width="1.0" stroke-linejoin="round" stroke-linecap="butt" d="m520.063 260.0315l65.00787 0l0 65.00787l-65.00787 0z" fill-rule="evenodd"/><path fill="#ffffff" d="m455.0551 260.0315l65.00787 0l0 65.00787l-65.00787 0z" fill-rule="evenodd"/><path stroke="#000000" stroke-width="1.0" stroke-linejoin="round" stroke-linecap="butt" d="m455.0551 260.0315l65.00787 0l0 65.00787l-65.00787 0z" fill-rule="evenodd"/><path fill="#ffffff" d="m390.04724 259.9475l65.00787 0l0 65.00787l-65.00787 0z" fill-rule="evenodd"/><path stroke="#000000" stroke-width="1.0" stroke-linejoin="round" stroke-linecap="butt" d="m390.04724 259.9475l65.00787 0l0 65.00787l-65.00787 0z" fill-rule="evenodd"/><path fill="#ffffff" d="m390.00525 194.89764l65.00787 0l0 65.00787l-65.00787 0z" fill-rule="evenodd"/><path stroke="#000000" stroke-width="1.0" stroke-linejoin="round" stroke-linecap="butt" d="m390.00525 194.89764l65.00787 0l0 65.00787l-65.00787 0z" fill-rule="evenodd"/><path fill="#ffffff" d="m390.04724 129.95276l65.00787 0l0 65.00787l-65.00787 0z" fill-rule="evenodd"/><path stroke="#000000" stroke-width="1.0" stroke-linejoin="round" stroke-linecap="butt" d="m390.04724 129.95276l65.00787 0l0 65.00787l-65.00787 0z" fill-rule="evenodd"/><path fill="#ffffff" d="m390.04724 64.7979l65.00787 0l0 65.00787l-65.00787 0z" fill-rule="evenodd"/><path stroke="#000000" stroke-width="1.0" stroke-linejoin="round" stroke-linecap="butt" d="m390.04724 64.7979l65.00787 0l0 65.00787l-65.00787 0z" fill-rule="evenodd"/><path fill="#c9daf8" d="m390.00525 -0.04199475l65.00787 0l0 65.00787l-65.00787 0z" fill-rule="evenodd"/><path stroke="#000000" stroke-width="1.0" stroke-linejoin="round" stroke-linecap="butt" d="m390.00525 -0.04199475l65.00787 0l0 65.00787l-65.00787 0z" fill-rule="evenodd"/><path fill="#ffffff" d="m324.99606 0.0839895l65.00787 0l0 65.00787l-65.00787 0z" fill-rule="evenodd"/><path stroke="#000000" stroke-width="1.0" stroke-linejoin="round" stroke-linecap="butt" d="m324.99606 0.0839895l65.00787 0l0 65.00787l-65.00787 0z" fill-rule="evenodd"/><path fill="#ffffff" d="m260.0315 0.0839895l65.00787 0l0 65.00787l-65.00787 0z" fill-rule="evenodd"/><path stroke="#000000" stroke-width="1.0" stroke-linejoin="round" stroke-linecap="butt" d="m260.0315 0.0839895l65.00787 0l0 65.00787l-65.00787 0z" fill-rule="evenodd"/><path fill="#ffffff" d="m260.0315 65.049866l65.00787 0l0 65.00787l-65.00787 0z" fill-rule="evenodd"/><path stroke="#000000" stroke-width="1.0" stroke-linejoin="round" stroke-linecap="butt" d="m260.0315 65.049866l65.00787 0l0 65.00787l-65.00787 0z" fill-rule="evenodd"/><path fill="#ffffff" d="m260.0315 130.05774l65.00787 0l0 65.00787l-65.00787 0z" fill-rule="evenodd"/><path stroke="#000000" stroke-width="1.0" stroke-linejoin="round" stroke-linecap="butt" d="m260.0315 130.05774l65.00787 0l0 65.00787l-65.00787 0z" fill-rule="evenodd"/><path fill="#ffffff" d="m260.0315 195.04462l65.00787 0l0 65.00787l-65.00787 0z" fill-rule="evenodd"/><path stroke="#000000" stroke-width="1.0" stroke-linejoin="round" stroke-linecap="butt" d="m260.0315 195.04462l65.00787 0l0 65.00787l-65.00787 0z" fill-rule="evenodd"/><path fill="#ffffff" d="m325.03937 325.02887l65.00787 0l0 65.00787l-65.00787 0z" fill-rule="evenodd"/><path stroke="#000000" stroke-width="1.0" stroke-linejoin="round" stroke-linecap="butt" d="m325.03937 325.02887l65.00787 0l0 65.00787l-65.00787 0z" fill-rule="evenodd"/><path fill="#efefef" d="m324.99738 357.45932l32.503937 -32.503937l32.503937 32.503937l-32.503937 32.503937z" fill-rule="evenodd"/><path stroke="#000000" stroke-width="1.0" stroke-linejoin="round" stroke-linecap="butt" d="m324.99738 357.45932l32.503937 -32.503937l32.503937 32.503937l-32.503937 32.503937z" fill-rule="evenodd"/><path fill="#ffffff" d="m-0.007874016 455.0551l260.0315 0l0 260.0315l-260.0315 0z" fill-rule="evenodd"/><path stroke="#000000" stroke-width="2.0" stroke-linejoin="round" stroke-linecap="butt" d="m-0.007874016 455.0551l260.0315 0l0 260.0315l-260.0315 0z" fill-rule="evenodd"/><path fill="#ffffff" d="m65.049866 541.612l0 0c0 -11.947571 9.685417 -21.632996 21.63298 -21.632996l86.74979 0l0 0c5.7374268 0 11.239868 2.2791748 15.296829 6.3361816c4.0569763 4.056946 6.336151 9.559387 6.336151 15.296814l0 86.5293c0 11.947571 -9.68541 21.632996 -21.63298 21.632996l-86.74979 0c-11.947563 0 -21.63298 -9.685425 -21.63298 -21.632996z" fill-rule="evenodd"/><path stroke="#000000" stroke-width="2.0" stroke-linejoin="round" stroke-linecap="butt" d="m65.049866 541.612l0 0c0 -11.947571 9.685417 -21.632996 21.63298 -21.632996l86.74979 0l0 0c5.7374268 0 11.239868 2.2791748 15.296829 6.3361816c4.0569763 4.056946 6.336151 9.559387 6.336151 15.296814l0 86.5293c0 11.947571 -9.68541 21.632996 -21.63298 21.632996l-86.74979 0c-11.947563 0 -21.63298 -9.685425 -21.63298 -21.632996z" fill-rule="evenodd"/><path fill="#ffffff" d="m-0.005249344 -0.12860893l260.0315 0l0 260.0315l-260.0315 0z" fill-rule="evenodd"/><path stroke="#000000" stroke-width="2.0" stroke-linejoin="round" stroke-linecap="butt" d="m-0.005249344 -0.12860893l260.0315 0l0 260.0315l-260.0315 0z" fill-rule="evenodd"/><path fill="#ffffff" d="m65.00787 86.724846l0 0c0 -11.947571 9.685417 -21.63298 21.63298 -21.63298l86.74979 0l0 0c5.7374268 0 11.239853 2.2791824 15.296829 6.336151c4.0569763 4.0569687 6.336151 9.559402 6.336151 15.296829l0 86.52932c0 11.947556 -9.68541 21.63298 -21.63298 21.63298l-86.74979 0c-11.947563 0 -21.63298 -9.685425 -21.63298 -21.63298z" fill-rule="evenodd"/><path stroke="#000000" stroke-width="2.0" stroke-linejoin="round" stroke-linecap="butt" d="m65.00787 86.724846l0 0c0 -11.947571 9.685417 -21.63298 21.63298 -21.63298l86.74979 0l0 0c5.7374268 0 11.239853 2.2791824 15.296829 6.336151c4.0569763 4.0569687 6.336151 9.559402 6.336151 15.296829l0 86.52932c0 11.947556 -9.68541 21.63298 -21.63298 21.63298l-86.74979 0c-11.947563 0 -21.63298 -9.685425 -21.63298 -21.63298z" fill-rule="evenodd"/><path fill="#ffffff" d="m455.0551 -0.13648294l260.0315 0l0 260.0315l-260.0315 0z" fill-rule="evenodd"/><path stroke="#000000" stroke-width="2.0" stroke-linejoin="round" stroke-linecap="butt" d="m455.0551 -0.13648294l260.0315 0l0 260.0315l-260.0315 0z" fill-rule="evenodd"/><path fill="#ffffff" d="m520.063 86.96631l0 0c0 -11.947563 9.685425 -21.632973 21.632996 -21.632973l86.749756 0l0 0c5.7374268 0 11.239868 2.2791824 15.296875 6.336151c4.056946 4.0569687 6.3361206 9.559402 6.3361206 15.296822l0 86.52933c0 11.947556 -9.685425 21.63298 -21.632996 21.63298l-86.749756 0c-11.947571 0 -21.632996 -9.685425 -21.632996 -21.63298z" fill-rule="evenodd"/><path stroke="#000000" stroke-width="2.0" stroke-linejoin="round" stroke-linecap="butt" d="m520.063 86.96631l0 0c0 -11.947563 9.685425 -21.632973 21.632996 -21.632973l86.749756 0l0 0c5.7374268 0 11.239868 2.2791824 15.296875 6.336151c4.056946 4.0569687 6.3361206 9.559402 6.3361206 15.296822l0 86.52933c0 11.947556 -9.685425 21.63298 -21.632996 21.63298l-86.749756 0c-11.947571 0 -21.632996 -9.685425 -21.632996 -21.63298z" fill-rule="evenodd"/><path fill="#ffffff" d="m455.01312 455.0551l260.0315 0l0 260.0315l-260.0315 0z" fill-rule="evenodd"/><path stroke="#000000" stroke-width="2.0" stroke-linejoin="round" stroke-linecap="butt" d="m455.01312 455.0551l260.0315 0l0 260.0315l-260.0315 0z" fill-rule="evenodd"/><path fill="#ffffff" d="m519.979 541.612l0 0c0 -11.947571 9.685425 -21.632996 21.632996 -21.632996l86.749756 0l0 0c5.7374268 0 11.239868 2.2791748 15.296814 6.3361816c4.057007 4.056946 6.3361816 9.559387 6.3361816 15.296814l0 86.5293c0 11.947571 -9.685425 21.632996 -21.632996 21.632996l-86.749756 0c-11.947571 0 -21.632996 -9.685425 -21.632996 -21.632996z" fill-rule="evenodd"/><path stroke="#000000" stroke-width="2.0" stroke-linejoin="round" stroke-linecap="butt" d="m519.979 541.612l0 0c0 -11.947571 9.685425 -21.632996 21.632996 -21.632996l86.749756 0l0 0c5.7374268 0 11.239868 2.2791748 15.296814 6.3361816c4.057007 4.056946 6.3361816 9.559387 6.3361816 15.296814l0 86.5293c0 11.947571 -9.685425 21.632996 -21.632996 21.632996l-86.749756 0c-11.947571 0 -21.632996 -9.685425 -21.632996 -21.632996z" fill-rule="evenodd"/><path fill="#fff2cc" d="m65.049866 324.97507l65.00787 0l0 65.00787l-65.00787 0z" fill-rule="evenodd"/><path stroke="#000000" stroke-width="1.0" stroke-linejoin="round" stroke-linecap="butt" d="m65.049866 324.97507l65.00787 0l0 65.00787l-65.00787 0z" fill-rule="evenodd"/><path fill="#fff2cc" d="m130.01575 324.97507l65.00787 0l0 65.00787l-65.00787 0z" fill-rule="evenodd"/><path stroke="#000000" stroke-width="1.0" stroke-linejoin="round" stroke-linecap="butt" d="m130.01575 324.97507l65.00787 0l0 65.00787l-65.00787 0z" fill-rule="evenodd"/><path fill="#fff2cc" d="m195.00262 324.97507l65.00787 0l0 65.00787l-65.00787 0z" fill-rule="evenodd"/><path stroke="#000000" stroke-width="1.0" stroke-linejoin="round" stroke-linecap="butt" d="m195.00262 324.97507l65.00787 0l0 65.00787l-65.00787 0z" fill-rule="evenodd"/><path fill="#fff2cc" d="m260.0315 325.02887l65.00787 0l0 65.00787l-65.00787 0z" fill-rule="evenodd"/><path stroke="#000000" stroke-width="1.0" stroke-linejoin="round" stroke-linecap="butt" d="m260.0315 325.02887l65.00787 0l0 65.00787l-65.00787 0z" fill-rule="evenodd"/><path fill="#c9daf8" d="m325.03674 64.8399l65.00787 0l0 65.007866l-65.00787 0z" fill-rule="evenodd"/><path stroke="#000000" stroke-width="1.0" stroke-linejoin="round" stroke-linecap="butt" d="m325.03674 64.8399l65.00787 0l0 65.007866l-65.00787 0z" fill-rule="evenodd"/><path fill="#c9daf8" d="m325.03674 129.94226l65.00787 0l0 65.00787l-65.00787 0z" fill-rule="evenodd"/><path stroke="#000000" stroke-width="1.0" stroke-linejoin="round" stroke-linecap="butt" d="m325.03674 129.94226l65.00787 0l0 65.00787l-65.00787 0z" fill-rule="evenodd"/><path fill="#c9daf8" d="m325.03674 195.03937l65.00787 0l0 65.00787l-65.00787 0z" fill-rule="evenodd"/><path stroke="#000000" stroke-width="1.0" stroke-linejoin="round" stroke-linecap="butt" d="m325.03674 195.03937l65.00787 0l0 65.00787l-65.00787 0z" fill-rule="evenodd"/><path fill="#c9daf8" d="m325.03937 259.94226l65.00787 0l0 65.00787l-65.00787 0z" fill-rule="evenodd"/><path stroke="#000000" stroke-width="1.0" stroke-linejoin="round" stroke-linecap="butt" d="m325.03937 259.94226l65.00787 0l0 65.00787l-65.00787 0z" fill-rule="evenodd"/><path fill="#f4cccc" d="m390.04724 324.93964l65.00787 0l0 65.00787l-65.00787 0z" fill-rule="evenodd"/><path stroke="#000000" stroke-width="1.0" stroke-linejoin="round" stroke-linecap="butt" d="m390.04724 324.93964l65.00787 0l0 65.00787l-65.00787 0z" fill-rule="evenodd"/><path fill="#f4cccc" d="m455.03412 324.97113l65.00787 0l0 65.00787l-65.00787 0z" fill-rule="evenodd"/><path stroke="#000000" stroke-width="1.0" stroke-linejoin="round" stroke-linecap="butt" d="m455.03412 324.97113l65.00787 0l0 65.00787l-65.00787 0z" fill-rule="evenodd"/><path fill="#f4cccc" d="m520.063 324.97113l65.00787 0l0 65.00787l-65.00787 0z" fill-rule="evenodd"/><path stroke="#000000" stroke-width="1.0" stroke-linejoin="round" stroke-linecap="butt" d="m520.063 324.97113l65.00787 0l0 65.00787l-65.00787 0z" fill-rule="evenodd"/><path fill="#f4cccc" d="m585.07086 324.97113l65.00787 0l0 65.00787l-65.00787 0z" fill-rule="evenodd"/><path stroke="#000000" stroke-width="1.0" stroke-linejoin="round" stroke-linecap="butt" d="m585.07086 324.97113l65.00787 0l0 65.00787l-65.00787 0z" fill-rule="evenodd"/><path fill="#d9ead3" d="m325.01443 390.00525l65.00787 0l0 65.00787l-65.00787 0z" fill-rule="evenodd"/><path stroke="#000000" stroke-width="1.0" stroke-linejoin="round" stroke-linecap="butt" d="m325.01443 390.00525l65.00787 0l0 65.00787l-65.00787 0z" fill-rule="evenodd"/><path fill="#d9ead3" d="m325.01443 455.00787l65.00787 0l0 65.00787l-65.00787 0z" fill-rule="evenodd"/><path stroke="#000000" stroke-width="1.0" stroke-linejoin="round" stroke-linecap="butt" d="m325.01443 455.00787l65.00787 0l0 65.00787l-65.00787 0z" fill-rule="evenodd"/><path fill="#d9ead3" d="m325.01443 519.979l65.00787 0l0 65.00787l-65.00787 0z" fill-rule="evenodd"/><path stroke="#000000" stroke-width="1.0" stroke-linejoin="round" stroke-linecap="butt" d="m325.01443 519.979l65.00787 0l0 65.00787l-65.00787 0z" fill-rule="evenodd"/><path fill="#d9ead3" d="m325.01443 584.9974l65.00787 0l0 65.00787l-65.00787 0z" fill-rule="evenodd"/><path stroke="#000000" stroke-width="1.0" stroke-linejoin="round" stroke-linecap="butt" d="m325.01443 584.9974l65.00787 0l0 65.00787l-65.00787 0z" fill-rule="evenodd"/></g></svg>