<svg version="1.1" viewBox="0.0 0.0 130.0 65.0" fill="none" stroke="none" stroke-linecap="square" stroke-miterlimit="10" xmlns:xlink="http://www.w3.org/1999/xlink" xmlns="http://www.w3.org/2000/svg"><clipPath id="p.0"><path d="m0 0l130.0 0l0 65.0l-130.0 0l0 -65.0z" clip-rule="nonzero"/></clipPath><g clip-path="url(#p.0)"><path fill="#000000" fill-opacity="0.0" d="m0 0l130.0 0l0 65.0l-130.0 0z" fill-rule="evenodd"/><path fill="#000000" fill-opacity="0.0" d="m-0.27821523 -0.08661418l130.01575 0l0 65.00787l-130.01575 0z" fill-rule="evenodd"/><path fill="#efefef" d="m51.28801 23.875883l-2.5625 0l-8.078125 13.515627l0 7.359375l4.546875 0l0 2.5625l-11.953125 0l0 -2.5625l4.484375 0l0 -7.390625l-8.437502 -13.484377l-2.5625 0l0 -2.5625l9.468752 0l0 2.5625l-3.546875 0l6.546875 10.796877l0.203125 0l6.359375 -10.796877l-3.59375 0l0 -2.5625l9.125 0l0 2.5625zm26.30748 10.437502q0 3.6875 -1.640625 6.734375q-1.640625 3.03125 -4.59375 4.859375q-2.953125 1.8125 -6.875 1.8125q-5.890625 0 -9.40625 -3.9375q-3.515625 -3.953125 -3.515625 -9.46875q0 -5.593752 3.609375 -9.500002q3.625 -3.90625 9.390625 -3.90625q5.84375 0 9.4375 3.921875q3.59375 3.921875 3.59375 9.484377zm-3.15625 0.046875q0 -4.687502 -2.6875 -7.750002q-2.671875 -3.0625 -7.1875 -3.0625q-4.640625 0 -7.25 3.125q-2.59375 3.125 -2.59375 7.593752q0 4.40625 2.59375 7.609375q2.609375 3.203125 7.328125 3.203125q4.59375 0 7.1875 -3.09375q2.609375 -3.109375 2.609375 -7.625zm31.565598 -10.484377l-2.515625 0l0 12.750002q0 2.765625 -0.953125 5.3125q-0.9375 2.53125 -3.203125 4.15625q-2.25 1.625 -6.25 1.625q-5.796875 0 -7.984375 -3.21875q-2.171875 -3.234375 -2.171875 -7.421875l0 -13.203127l-2.6875 0l0 -2.5625l9.25 0l0 2.5625l-3.609375 0l0 13.125002q0 3.828125 1.796875 5.953125q1.8125 2.125 5.5625 2.125q7.484375 0 7.484375 -8.453125l0 -12.750002l-3.71875 0l0 -2.5625l9.0 0l0 2.5625z" fill-rule="nonzero"/></g></svg>